<mxfile host="app.diagrams.net" agent="Mozilla/5.0 (Windows NT 10.0; Win64; x64) AppleWebKit/537.36 (KHTML, like Gecko) Chrome/138.0.0.0 Safari/537.36" version="27.2.0">
  <diagram name="Página-1" id="kPdVH2KCaLIll-RG5n46">
    <mxGraphModel dx="1426" dy="749" grid="1" gridSize="10" guides="1" tooltips="1" connect="1" arrows="1" fold="1" page="1" pageScale="1" pageWidth="827" pageHeight="1169" math="0" shadow="0">
      <root>
        <mxCell id="0" />
        <mxCell id="1" parent="0" />
        <mxCell id="Dg9mZwrB-1rd47UA7Utw-5" style="edgeStyle=orthogonalEdgeStyle;rounded=0;orthogonalLoop=1;jettySize=auto;html=1;entryX=0.5;entryY=0;entryDx=0;entryDy=0;" edge="1" parent="1" source="Dg9mZwrB-1rd47UA7Utw-1" target="Dg9mZwrB-1rd47UA7Utw-3">
          <mxGeometry relative="1" as="geometry" />
        </mxCell>
        <mxCell id="Dg9mZwrB-1rd47UA7Utw-7" value="Login" style="edgeLabel;html=1;align=center;verticalAlign=middle;resizable=0;points=[];" vertex="1" connectable="0" parent="Dg9mZwrB-1rd47UA7Utw-5">
          <mxGeometry x="0.025" y="3" relative="1" as="geometry">
            <mxPoint as="offset" />
          </mxGeometry>
        </mxCell>
        <mxCell id="Dg9mZwrB-1rd47UA7Utw-1" value="RH" style="rounded=1;whiteSpace=wrap;html=1;fillColor=#fff2cc;strokeColor=#d6b656;" vertex="1" parent="1">
          <mxGeometry x="200" y="80" width="80" height="80" as="geometry" />
        </mxCell>
        <mxCell id="Dg9mZwrB-1rd47UA7Utw-6" style="edgeStyle=orthogonalEdgeStyle;rounded=0;orthogonalLoop=1;jettySize=auto;html=1;entryX=0.5;entryY=0;entryDx=0;entryDy=0;" edge="1" parent="1" source="Dg9mZwrB-1rd47UA7Utw-2" target="Dg9mZwrB-1rd47UA7Utw-4">
          <mxGeometry relative="1" as="geometry" />
        </mxCell>
        <mxCell id="Dg9mZwrB-1rd47UA7Utw-8" value="Login" style="edgeLabel;html=1;align=center;verticalAlign=middle;resizable=0;points=[];" vertex="1" connectable="0" parent="Dg9mZwrB-1rd47UA7Utw-6">
          <mxGeometry x="-0.0222" relative="1" as="geometry">
            <mxPoint as="offset" />
          </mxGeometry>
        </mxCell>
        <mxCell id="Dg9mZwrB-1rd47UA7Utw-2" value="Funcionário" style="rounded=1;whiteSpace=wrap;html=1;fillColor=#ffe6cc;strokeColor=#d79b00;" vertex="1" parent="1">
          <mxGeometry x="520" y="80" width="80" height="80" as="geometry" />
        </mxCell>
        <mxCell id="Dg9mZwrB-1rd47UA7Utw-11" style="edgeStyle=orthogonalEdgeStyle;rounded=0;orthogonalLoop=1;jettySize=auto;html=1;" edge="1" parent="1" source="Dg9mZwrB-1rd47UA7Utw-3" target="Dg9mZwrB-1rd47UA7Utw-9">
          <mxGeometry relative="1" as="geometry" />
        </mxCell>
        <mxCell id="Dg9mZwrB-1rd47UA7Utw-3" value="Web" style="rounded=1;whiteSpace=wrap;html=1;fillColor=#d5e8d4;strokeColor=#82b366;" vertex="1" parent="1">
          <mxGeometry x="200" y="240" width="80" height="80" as="geometry" />
        </mxCell>
        <mxCell id="Dg9mZwrB-1rd47UA7Utw-12" style="edgeStyle=orthogonalEdgeStyle;rounded=0;orthogonalLoop=1;jettySize=auto;html=1;entryX=1;entryY=0.5;entryDx=0;entryDy=0;" edge="1" parent="1" source="Dg9mZwrB-1rd47UA7Utw-4" target="Dg9mZwrB-1rd47UA7Utw-9">
          <mxGeometry relative="1" as="geometry" />
        </mxCell>
        <mxCell id="Dg9mZwrB-1rd47UA7Utw-4" value="Mobile" style="rounded=1;whiteSpace=wrap;html=1;fillColor=#d5e8d4;strokeColor=#82b366;" vertex="1" parent="1">
          <mxGeometry x="520" y="240" width="80" height="80" as="geometry" />
        </mxCell>
        <mxCell id="Dg9mZwrB-1rd47UA7Utw-19" style="edgeStyle=orthogonalEdgeStyle;rounded=0;orthogonalLoop=1;jettySize=auto;html=1;entryX=0.5;entryY=0;entryDx=0;entryDy=0;" edge="1" parent="1" source="Dg9mZwrB-1rd47UA7Utw-9" target="Dg9mZwrB-1rd47UA7Utw-18">
          <mxGeometry relative="1" as="geometry" />
        </mxCell>
        <mxCell id="Dg9mZwrB-1rd47UA7Utw-25" value="API Handlers" style="edgeLabel;html=1;align=center;verticalAlign=middle;resizable=0;points=[];" vertex="1" connectable="0" parent="Dg9mZwrB-1rd47UA7Utw-19">
          <mxGeometry x="-0.1" relative="1" as="geometry">
            <mxPoint as="offset" />
          </mxGeometry>
        </mxCell>
        <mxCell id="Dg9mZwrB-1rd47UA7Utw-9" value="API&lt;div&gt;Endpoints&lt;/div&gt;" style="rounded=1;whiteSpace=wrap;html=1;fillColor=#dae8fc;strokeColor=#6c8ebf;" vertex="1" parent="1">
          <mxGeometry x="360" y="240" width="80" height="80" as="geometry" />
        </mxCell>
        <mxCell id="Dg9mZwrB-1rd47UA7Utw-15" value="DB" style="rounded=1;whiteSpace=wrap;html=1;fillColor=#e1d5e7;strokeColor=#9673a6;" vertex="1" parent="1">
          <mxGeometry x="360" y="550" width="80" height="80" as="geometry" />
        </mxCell>
        <mxCell id="Dg9mZwrB-1rd47UA7Utw-20" style="edgeStyle=orthogonalEdgeStyle;rounded=0;orthogonalLoop=1;jettySize=auto;html=1;entryX=0.5;entryY=0;entryDx=0;entryDy=0;" edge="1" parent="1" source="Dg9mZwrB-1rd47UA7Utw-18" target="Dg9mZwrB-1rd47UA7Utw-15">
          <mxGeometry relative="1" as="geometry" />
        </mxCell>
        <mxCell id="Dg9mZwrB-1rd47UA7Utw-26" value="ORM" style="edgeLabel;html=1;align=center;verticalAlign=middle;resizable=0;points=[];" vertex="1" connectable="0" parent="Dg9mZwrB-1rd47UA7Utw-20">
          <mxGeometry x="-0.2" y="1" relative="1" as="geometry">
            <mxPoint as="offset" />
          </mxGeometry>
        </mxCell>
        <mxCell id="Dg9mZwrB-1rd47UA7Utw-18" value="API" style="rounded=1;whiteSpace=wrap;html=1;fillColor=#dae8fc;strokeColor=#6c8ebf;" vertex="1" parent="1">
          <mxGeometry x="360" y="400" width="80" height="80" as="geometry" />
        </mxCell>
      </root>
    </mxGraphModel>
  </diagram>
</mxfile>
